Coordinates
version=1
nRows=60
nColumns=12
inDegrees=yes

Units are S.I. units (second, meters, Newtons, ...)
Angles are in degrees

endheader
time	SC_y	SC_z	SC_x	AC_y	AC_z	AC_x	GH_y	GH_z	GH_yy	EL_x	PS_y
       0.0              -41.21          27.99          82.22          59.39         -2.988         -17.95          165.5          62.55         -44.78          107.3           83.1
   0.03279              -41.21          27.98          82.21          59.39         -2.989         -17.95          165.5          62.56         -44.75          107.3           83.1
   0.06559              -41.21          27.98           82.2          59.39         -2.991         -17.94          165.5          62.56         -44.72          107.3          83.09
   0.09838              -41.21          27.97          82.19          59.39         -2.993         -17.94          165.5          62.56         -44.68          107.3          83.08
    0.1312              -41.21          27.97          82.17           59.4         -2.995         -17.93          165.5          62.57         -44.65          107.3          83.07
     0.164              -41.21          27.96          82.16           59.4         -2.997         -17.92          165.4          62.57         -44.61          107.3          83.06
    0.1968              -41.21          27.96          82.14           59.4         -2.999         -17.92          165.4          62.58         -44.57          107.3          83.06
    0.2296              -41.21          27.95          82.13           59.4         -3.002         -17.91          165.4          62.59         -44.52          107.3          83.05
    0.2623              -41.22          27.95          82.11          59.41         -3.004          -17.9          165.4          62.59         -44.47          107.3          83.03
    0.2951              -41.22          27.94          82.09          59.41         -3.007         -17.89          165.3           62.6         -44.42          107.3          83.02
    0.3279              -41.22          27.93          82.07          59.41          -3.01         -17.88          165.3          62.61         -44.37          107.3          83.01
    0.3607              -41.22          27.92          82.04          59.41         -3.013         -17.87          165.3          62.61         -44.31          107.3           83.0
    0.3935              -41.22          27.91          82.02          59.42         -3.017         -17.86          165.2          62.62         -44.25          107.3          82.98
    0.4263              -41.22          27.91          81.99          59.42          -3.02         -17.85          165.2          62.63         -44.18          107.3          82.97
    0.4591              -41.23          27.89          81.97          59.42         -3.025         -17.84          165.2          62.64         -44.11          107.3          82.95
    0.4919              -41.23          27.88          81.94          59.43         -3.029         -17.83          165.1          62.65         -44.03          107.3          82.93
    0.5247              -41.23          27.87           81.9          59.43         -3.034         -17.81          165.1          62.66         -43.94          107.3          82.91
    0.5575              -41.23          27.86          81.87          59.44         -3.039          -17.8          165.0          62.68         -43.84          107.3          82.89
    0.5903              -41.23          27.84          81.83          59.44         -3.045         -17.78          165.0          62.69         -43.74          107.3          82.87
    0.6231              -41.24          27.83          81.78          59.45         -3.051         -17.76          164.9           62.7         -43.63          107.3          82.84
    0.6559              -41.24          27.81          81.73          59.46         -3.058         -17.74          164.8          62.72          -43.5          107.3          82.81
    0.6887              -41.25          27.79          81.68          59.46         -3.065         -17.72          164.8          62.74         -43.37          107.3          82.78
    0.7214              -41.25          27.77          81.62          59.47         -3.073         -17.69          164.7          62.76         -43.21          107.3          82.75
    0.7542              -41.25          27.75          81.56          59.48         -3.083         -17.66          164.6          62.78         -43.05          107.3          82.71
     0.787              -41.26          27.72          81.49          59.49         -3.093         -17.63          164.5          62.81         -42.86          107.3          82.67
    0.8198              -41.26          27.69          81.41           59.5         -3.104          -17.6          164.4          62.83         -42.65          107.3          82.62
    0.8526              -41.27          27.66          81.32          59.51         -3.117         -17.56          164.3          62.86         -42.42          107.3          82.57
    0.8854              -41.28          27.63          81.22          59.52         -3.131         -17.52          164.1           62.9         -42.16          107.3          82.51
    0.9182              -41.29          27.58           81.1          59.54         -3.147         -17.47          164.0          62.94         -41.86          107.3          82.44
     0.951              -41.29          27.54          80.97          59.56         -3.166         -17.41          163.8          62.98         -41.52          107.3          82.36
    0.9838              -41.31          27.48          80.83          59.58         -3.187         -17.35          163.6          63.03         -41.14          107.3          82.28
     1.017              -41.32          27.42          80.66           59.6         -3.211         -17.28          163.4          63.09          -40.7          107.3          82.18
     1.049              -41.33          27.35          80.46          59.62         -3.239         -17.19          163.1          63.16         -40.19          107.3          82.06
     1.082              -41.35          27.27          80.24          59.66         -3.271         -17.09          162.8          63.24          -39.6          107.3          81.93
     1.115              -41.37          27.18          79.97          59.69         -3.309         -16.98          162.4          63.33         -38.91          107.3          81.77
     1.148              -41.39          27.06          79.66          59.73         -3.354         -16.84          162.0          63.44         -38.09          107.3          81.58
     1.181              -41.41          26.93          79.29          59.78         -3.407         -16.68          161.5          63.56         -37.12          107.3          81.36
     1.213              -41.45          26.77          78.84          59.84          -3.47         -16.49          160.9          63.72         -35.96          107.3           81.1
     1.246              -41.48          26.58           78.3          59.91         -3.547         -16.26          160.1           63.9         -34.56          107.3          80.78
     1.279              -41.53          26.34          77.64           60.0         -3.641         -15.97          159.2          64.13         -32.84          107.3          80.39
     1.312              -41.59          26.05          76.83          60.11         -3.757         -15.62          158.1          64.41         -30.72          107.3          79.91
     1.345              -41.66          25.68          75.82          60.25         -3.902         -15.18          156.7          64.76         -28.08          107.3          79.31
     1.377              -41.75          25.22          74.54          60.42         -4.084         -14.63          155.0           65.2         -24.76          107.3          78.55
      1.41              -41.86          24.64          72.92          60.63         -4.316         -13.93          152.8          65.76         -20.53          107.3          77.59
     1.443              -42.01          23.89          70.84          60.91         -4.612         -13.03          149.9          66.48         -15.11          107.3          76.36
     1.476               -42.2          22.93          68.17          61.27         -4.993         -11.88          146.3           67.4         -8.165          107.3          74.78
     1.508              -42.44           21.7          64.77          61.72         -5.479         -10.41          141.6          68.57         0.7099          107.3          72.76
     1.541              -42.74          20.16          60.48          62.29          -6.09         -8.561          135.7          70.05          11.87          107.3          70.23
     1.574              -43.11          18.28          55.27          62.99         -6.834         -6.307          128.6          71.85          25.47          107.2          67.14
     1.607              -43.53           16.1          49.22           63.8         -7.698         -3.694          120.3          73.93          41.23          107.2          63.55
      1.64              -43.99          13.74          42.67          64.67         -8.632        -0.8645          111.3          76.19           58.3          107.2          59.67
     1.672              -44.45          11.38          36.12          65.55         -9.567          1.965          102.3          78.45          75.36          107.2          55.79
     1.705              -44.88          9.202          30.07          66.36         -10.43          4.578          94.05          80.53          91.12          107.1          52.21
     1.738              -45.25          7.322          24.85          67.05         -11.17          6.832           86.9          82.33          104.7          107.1          49.12
     1.771              -45.55           5.78          20.57          67.62         -11.79          8.682          81.03          83.81          115.9          107.1          46.58
     1.804              -45.79          4.553          17.16          68.08         -12.27          10.15          76.37          84.98          124.8          107.1          44.57
     1.836              -45.98          3.593           14.5          68.44         -12.65           11.3          72.71           85.9          131.7          107.1          42.99
     1.869              -46.12          2.844          12.42          68.71         -12.95           12.2          69.87          86.62          137.1          107.1          41.76
     1.902              -46.24           2.26           10.8          68.93         -13.18           12.9          67.64          87.18          141.3          107.1           40.8
     1.935              -46.33            1.8          9.519           69.1         -13.36          13.46          65.89          87.62          144.7          107.1          40.04
